<svg width="1728" height="173" viewBox="0 0 1728 173" fill="none" xmlns="http://www.w3.org/2000/svg">
<g clip-path="url(#clip0_4_99)">
<path opacity="0.25" d="M-1.20038 0.243286L-1.26558 66.1358C67.5752 97.805 147.977 112.077 226.395 106.218C327.801 98.6747 422.913 58.9969 524.476 53.1331C630.896 47.032 737.078 77.3717 838.883 103.636C938.685 129.357 1038.16 139.249 1140.64 122.554C1192.75 114.064 1241.33 97.2584 1291.21 80.9378C1424.76 37.2412 1602.81 -18.5108 1728.09 76.6442L1728.17 1.95464L-1.20038 0.243286Z" fill="white"/>
<path opacity="0.5" d="M-1.20038 0.243286L-1.22265 22.7484C17.4824 52.8164 38.5526 81.2213 67.4261 102.872C141.907 158.775 236.431 158.484 322.322 130.925C367.228 116.521 408.957 93.9009 451.605 74.3988C510.603 47.4112 573.778 9.03995 640.219 3.88155C692.479 -0.123629 742.383 17.3918 782.271 48.9469C828.021 85.1342 871.996 137.291 931.514 153.008C989.778 168.425 1048.76 143.601 1103.23 118.616C1157.7 93.6312 1211.6 63.208 1271.79 57.5025C1357.88 49.2603 1435.01 90.2331 1515.14 113.031C1558.65 125.401 1600.16 121.898 1640.66 102.479C1673 87.0095 1709.88 64.2135 1728.14 32.4739L1728.17 1.95464L-1.20038 0.243286Z" fill="white"/>
<path d="M-1.20038 0.243286L-1.20831 8.25743C214.787 84.442 451.347 102.213 684.477 61.5191C746.457 50.7051 805.893 32.999 868.419 24.036C953.458 11.8356 1030.5 41.6197 1106.96 74.663C1191.85 111.345 1275.52 137.078 1369.49 129.712C1494.2 119.871 1618.09 64.8914 1728.16 9.34246L1728.17 1.95464L-1.20038 0.243286Z" fill="white"/>
</g>
<defs>
<clipPath id="clip0_4_99">
<rect width="1729.37" height="170.817" fill="white" transform="translate(-1.20038 0.243286) rotate(0.056699)"/>
</clipPath>
</defs>
</svg>
